<?xml version="1.0" encoding="utf-8"?>
<!-- Generator: Adobe Illustrator 17.0.0, SVG Export Plug-In . SVG Version: 6.00 Build 0)  -->
<!DOCTYPE svg PUBLIC "-//W3C//DTD SVG 1.1//EN" "http://www.w3.org/Graphics/SVG/1.1/DTD/svg11.dtd">
<svg version="1.1" id="Слой_1" xmlns="http://www.w3.org/2000/svg" xmlns:xlink="http://www.w3.org/1999/xlink" x="0px" y="0px"
	 width="200px" height="200px" viewBox="0 0 200 200" enable-background="new 0 0 200 200" xml:space="preserve">
<circle fill="#E0E1E0" cx="100" cy="100" r="99.521"/>
<path fill="#A4A4A4" d="M100.778,130.07c-16.557,0-31.078-11.38-39.52-28.548c0.926,0.868,1.9,1.731,2.863,2.634
	c2.107,1.528,4.154,3.316,6.582,4.61c2.303,1.503,4.881,2.587,7.398,3.788c2.639,0.903,5.242,1.925,7.941,2.458
	c2.644,0.773,5.365,0.916,7.938,1.299c2.609,0.045,5.129,0.274,7.505-0.042c1.186-0.1,2.338-0.197,3.453-0.291
	c1.099-0.201,2.161-0.396,3.179-0.582c2.052-0.283,3.858-0.895,5.451-1.416c0.798-0.251,1.54-0.49,2.229-0.706
	c0.664-0.284,1.274-0.547,1.824-0.786c2.176-0.983,3.42-1.545,3.42-1.545s-1.314,0.361-3.61,0.993
	c-0.569,0.166-1.196,0.348-1.88,0.545c-0.701,0.129-1.458,0.274-2.268,0.423c-1.62,0.306-3.423,0.672-5.43,0.829
	c-0.997,0.105-2.033,0.221-3.109,0.333c-1.08,0.012-2.197,0.017-3.343,0.028c-2.291,0.134-4.689-0.311-7.167-0.403
	c-2.451-0.446-5.003-0.741-7.508-1.48c-2.555-0.537-5.008-1.55-7.502-2.423c-2.393-1.114-4.856-2.102-7.06-3.502
	c-2.311-1.212-4.341-2.789-6.403-4.179c-1.834-1.662-3.863-3.017-5.403-4.716c-0.548-0.549-1.077-1.07-1.605-1.6
	c-2.064-5.344-3.6-11.112-4.451-17.211c2.983,4.104,14.104,7.482,28.941,8.993c5.418,0.552,11.334-5.664,17.533-5.664
	c5.791,0,11.334,6.257,16.458,5.771c15.371-1.46,26.961-4.896,30.015-9.1C143.179,107.875,123.938,130.07,100.778,130.07
	L100.778,130.07z M116.809,80.154c-1.239,0.241-2.468,0.375-3.448,0.368c-0.737,0-2.694,0-2.921-1.376
	c-0.059-0.355,0.035-0.722,0.263-1.038c0.918-1.254,4.436-1.833,5.49-1.985c1.222-0.172,2.38-0.264,3.353-0.264
	c0.921,0,2.841,0,2.983,1.346C122.577,77.708,122.706,79.029,116.809,80.154L116.809,80.154z M86.075,80.565
	c-0.935,0-2.035-0.117-3.184-0.338c-3.726-0.721-5.533-1.724-5.361-2.99c0.182-1.351,2.109-1.351,2.928-1.351
	c0.908,0,1.983,0.092,3.11,0.271c0.977,0.15,4.242,0.751,5.129,1.987c0.227,0.318,0.319,0.689,0.258,1.045
	C88.717,80.565,86.731,80.565,86.075,80.565L86.075,80.565z M160.463,35.908c-0.047,0.02-0.092,0.032-0.14,0.04l-0.059,0.005
	c0,0-0.848,0.102-2.104,0.109c-0.63,0.012-1.361-0.015-2.145-0.069c-0.406-0.003-0.789-0.095-1.221-0.122
	c-0.452,0.013-0.921,0.03-1.391,0.01c-0.945-0.017-1.925-0.09-2.916-0.244c-0.997-0.144-2.102-0.12-3.169-0.349
	c-1.075-0.226-2.156-0.669-3.324-0.878c-0.965-0.222-1.97-0.43-2.975-0.614c-1.012-1.477-2.08-2.898-3.227-4.247
	c-0.503-0.595-1.017-1.182-1.537-1.754c-1.04-1.117-2.112-2.182-3.236-3.189c0.234-0.171,0.465-0.343,0.699-0.517
	c1.286-0.798,2.537-1.746,3.863-2.472c1.294-0.818,2.649-1.455,4.013-1.91c1.363-0.468,2.754-0.622,4.053-0.768
	c1.311-0.087,2.564-0.035,3.704,0.043c1.142,0.134,2.191,0.366,3.1,0.574c0.91,0.207,1.697,0.54,2.334,0.806
	c1.278,0.54,1.97,1,1.97,1c0.231,0.151,0.293,0.458,0.14,0.682c-0.032,0.052-0.074,0.094-0.117,0.127l-0.023,0.015
	c0,0-0.694,0.508-1.86,1.13c-0.579,0.334-1.276,0.619-2.05,1.047c-0.778,0.39-1.642,0.784-2.567,1.177
	c-0.86,0.42-1.794,0.781-2.758,1.15c0.431,0.043,0.865,0.075,1.286,0.137c1.344,0.284,2.647,0.495,3.789,1.087
	c1.149,0.564,2.201,1.164,3.127,1.766c0.938,0.56,1.724,1.232,2.346,1.953c0.634,0.686,1.145,1.306,1.535,1.848
	c0.786,1.07,1.104,1.778,1.104,1.778C160.822,35.509,160.71,35.8,160.463,35.908L160.463,35.908z M147.68,75.467
	c-2.903-5.017-22.772-8.901-46.899-8.901c-24.13,0-43.996,3.885-46.908,8.906c-0.241-2.169-0.403-4.363-0.403-6.604
	c0-29.336,21.177-53.117,47.302-53.117c11.155,0,21.386,4.365,29.473,11.615c1.129,1.008,2.204,2.074,3.237,3.189
	c0.53,0.565,1.037,1.152,1.543,1.747c0.6,0.706,1.125,1.478,1.684,2.219c-1.619-0.844-3.278-1.632-4.936-2.426
	c-2.639-0.9-5.242-1.921-7.943-2.458c-2.64-0.773-5.361-0.916-7.935-1.298c-2.612-0.045-5.132-0.274-7.503,0.038
	c-1.187,0.104-2.339,0.197-3.455,0.293c-1.099,0.201-2.161,0.395-3.182,0.582c-2.052,0.284-3.856,0.896-5.448,1.415
	c-0.798,0.251-1.542,0.49-2.231,0.706c-0.664,0.288-1.274,0.55-1.824,0.786c-2.176,0.983-3.418,1.543-3.418,1.543
	s1.313-0.361,3.609-0.993c0.567-0.164,1.196-0.346,1.878-0.547c0.699-0.129,1.458-0.271,2.271-0.42
	c1.614-0.303,3.42-0.674,5.426-0.833c0.998-0.105,2.035-0.216,3.109-0.329c1.08-0.01,2.197-0.02,3.344-0.028
	c2.288-0.134,4.691,0.309,7.167,0.401c2.448,0.448,5.003,0.742,7.505,1.483c2.557,0.533,5.012,1.547,7.503,2.42
	c2.393,1.112,4.858,2.104,7.062,3.503c0.97,0.508,1.865,1.097,2.759,1.692c4.798,8.299,7.615,18.177,7.615,28.814
	C148.083,71.104,147.919,73.296,147.68,75.467L147.68,75.467z"/>
<path fill="#A4A4A4" d="M147.436,131.436l7.122-13.604c0.823-1.574,0.763-3.462-0.159-4.978c-0.923-1.518-2.574-2.445-4.354-2.445
	h-5.749c-9.786,16.844-25.971,27.864-44.297,27.864s-34.513-11.022-44.297-27.866h-5.92c-1.779,0-3.431,0.928-4.354,2.445
	c-0.923,1.518-0.983,3.405-0.159,4.978l7.139,13.632c-12.811,2.145-22.605,13.272-22.605,26.642v12.433
	c17.997,17.911,42.802,28.983,70.198,28.983s52.202-11.073,70.198-28.983v-12.433C170.198,144.682,160.324,133.518,147.436,131.436z
	"/>
</svg>
